<svg width="300" height="300" viewBox="0 0 300 300" fill="none" xmlns="http://www.w3.org/2000/svg">
<path d="M80.6181 122.413L80.2379 122.025H72L73.6476 124.096C86.955 140.793 95.0662 161.115 97.2207 182.213C94.9395 203.311 87.0817 223.503 74.5347 240.459L73.0139 242.53H80.4914L81.5053 241.494C100.643 221.173 110.275 201.24 110.275 182.342C108.247 159.173 97.7277 137.816 80.6181 122.413Z" fill="#AB2328"/>
<path d="M122.06 91.7406L121.68 91.3523H111.668L113.189 93.4233C124.975 109.473 144.62 141.056 144.62 171.603C144.62 197.619 130.298 223.247 114.203 249.523L113.062 251.465H121.807L122.694 250.558C154.505 216.905 161.222 189.076 161.222 171.603C161.222 139.632 139.93 110.509 122.06 91.7406Z" fill="#AB2328"/>
<path d="M168.321 30.3883L167.94 30L154.506 30.6472L155.9 32.5887C170.222 51.8747 203.3 101.837 203.3 150.117C203.3 191.924 177.953 233.732 157.548 267.256L156.407 269.198H168.194L169.841 267.515C207.736 227.131 227 187.653 227 150.117C226.873 100.931 195.062 57.8287 168.321 30.3883Z" fill="#AB2328"/>
</svg>
